<?xml version="1.0" encoding="UTF-8" standalone="no"?>
<!-- Created with Inkscape (http://www.inkscape.org/) -->

<svg
   width="210mm"
   height="297mm"
   viewBox="0 0 793.70081 1122.5197"
   version="1.1"
   id="svg5"
   inkscape:version="1.2.2 (732a01da63, 2022-12-09)"
   sodipodi:docname="drawing_and.svg"
   xmlns:inkscape="http://www.inkscape.org/namespaces/inkscape"
   xmlns:sodipodi="http://sodipodi.sourceforge.net/DTD/sodipodi-0.dtd"
   xmlns="http://www.w3.org/2000/svg"
   xmlns:svg="http://www.w3.org/2000/svg">
  <sodipodi:namedview
     id="namedview7"
     pagecolor="#ffffff"
     bordercolor="#000000"
     borderopacity="0.25"
     inkscape:showpageshadow="2"
     inkscape:pageopacity="0.0"
     inkscape:pagecheckerboard="0"
     inkscape:deskcolor="#d1d1d1"
     inkscape:document-units="mm"
     showgrid="false"
     inkscape:zoom="0.5"
     inkscape:cx="709"
     inkscape:cy="643"
     inkscape:window-width="1920"
     inkscape:window-height="1012"
     inkscape:window-x="-8"
     inkscape:window-y="-8"
     inkscape:window-maximized="1"
     inkscape:current-layer="layer1" />
  <defs
     id="defs2" />
  <g
     inkscape:label="Layer 1"
     inkscape:groupmode="layer"
     id="layer1">
    <path
       id="path11356"
       style="color:#000000;fill:#000000;stroke-linecap:round;stroke-linejoin:round;-inkscape-stroke:none"
       d="M 55.69922 69.093752 L 55.69922 161.99024 L 55.69922 834.25588 C 55.698852 835.30019 56.545533 836.14687 57.589845 836.1465 L 124.15821 836.1465 L 126.84571 832.36525 L 59.48047 832.36525 L 59.48047 161.99024 L 59.48047 70.984377 L 55.69922 69.093752 z M 735.16603 69.093752 L 731.38478 70.984377 L 731.38478 176.28321 L 731.38478 832.36525 L 661.0547 832.36525 L 663.36525 836.1465 L 733.27541 836.1465 C 734.31973 836.14687 735.1664 835.3002 735.16603 834.25588 L 735.16603 176.28321 L 735.16603 69.093752 z M 200.38672 832.36525 L 197.69727 836.1465 L 343.6543 836.1465 L 363.80665 836.1465 L 363.80665 832.36525 L 200.38672 832.36525 z M 429.56642 832.36525 L 429.56642 836.1465 L 470.58009 836.1465 L 598.84962 836.1465 L 596.54103 832.36525 L 429.56642 832.36525 z " />
    <path
       style="fill:none;stroke:#000000;stroke-width:3.77953;stroke-linecap:round;stroke-linejoin:round;stroke-dasharray:none"
       d="M 590.00001,285.79959 H 395.91202 l 2e-5,-216.778609 m 337.43586,0 V 285.79959 h -61.34788"
       id="path5069"
       sodipodi:nodetypes="cccccc" />
    <path
       style="fill:none;stroke:#000000;stroke-width:3.42038;stroke-linecap:round;stroke-linejoin:round;stroke-dasharray:none"
       d="M 203.17544,285.70369 393.21558,439.78986"
       id="path5067" />
    <path
       style="fill:none;stroke:#000000;stroke-width:3.87943;stroke-linecap:round;stroke-linejoin:round;stroke-dasharray:none"
       d="m 56.209463,283.68644 62.290607,0.29935 m 83.50769,0.40132 192.7828,0.92646"
       id="path5067-7"
       sodipodi:nodetypes="cccc" />
    <path
       style="fill:none;stroke:#000000;stroke-width:3.51103;stroke-linecap:round;stroke-linejoin:round;stroke-dasharray:none"
       d="M 121.149,286.58679 356.08517,480.7126"
       id="path5065" />
    <path
       style="fill:none;stroke:#000000;stroke-width:3.45304;stroke-linecap:round;stroke-linejoin:round;stroke-dasharray:none"
       d="M 592.69463,286.03091 394.15267,440.17128"
       id="path5063" />
    <path
       style="fill:none;stroke:#000000;stroke-width:3.47897;stroke-linecap:round;stroke-linejoin:round;stroke-dasharray:none"
       d="M 671.67127,285.8967 432.20441,480.2434"
       id="path5061" />
    <path
       style="fill:none;stroke:#000000;stroke-width:4.15955;stroke-linecap:round;stroke-linejoin:round;stroke-dasharray:none"
       d="M 202.88665,832.93929 360.81629,606.35597"
       id="path5059" />
    <path
       style="fill:none;stroke:#000000;stroke-width:3.97182;stroke-linecap:round;stroke-linejoin:round;stroke-dasharray:none"
       d="M 124.32555,832.56172 355.03934,482.53257"
       id="path5057" />
    <path
       style="fill:none;stroke:#000000;stroke-width:4.14489;stroke-linecap:round;stroke-linejoin:round;stroke-dasharray:none"
       d="M 595.50452,832.75122 433.19771,608.36475"
       id="path5055" />
    <path
       style="fill:none;stroke:#000000;stroke-width:3.98125;stroke-linecap:round;stroke-linejoin:round;stroke-dasharray:none"
       d="M 666.47649,833.22751 432.20412,481.09797"
       id="path5053" />
    <path
       style="fill:none;stroke:#000000;stroke-width:4.33804;stroke-linecap:round;stroke-linejoin:round;stroke-dasharray:none"
       d="M 360.98947,609.10582 V 831.59418"
       id="path5051" />
    <path
       style="fill:none;stroke:#000000;stroke-width:4.34995;stroke-linecap:round;stroke-linejoin:round;stroke-dasharray:none"
       d="M 432.84376,607.9241 V 832.30074"
       id="path1104" />
    <rect
       style="fill:none;stroke:none;stroke-width:22.1194;stroke-linecap:round;stroke-linejoin:round"
       id="rect5556-5"
       width="718.64386"
       height="53.883068"
       x="57.186619"
       y="41.949165"
       ry="0"
       transform="matrix(1,0,-0.29799001,0.95456899,0,0)" />
  </g>
</svg>
